<svg width="500" height="500" viewBox="0 0 500 500" fill="none" xmlns="http://www.w3.org/2000/svg">
<rect width="500" height="500" rx="50" fill="white"/>
<path d="M52.4726 30.3228C52.0525 31.1884 51.9125 67.7913 52.0525 111.69L52.4726 191.45L61.5755 191.821L70.6783 192.192V199.858V207.525L89.8643 207.896L109.19 208.267L109.47 272.693L109.89 337.243L121.374 337.614C161.146 338.603 194.337 359.872 207.921 393.013C209.461 396.846 210.722 404.637 211.282 413.169L212.122 427.143L289.846 427.019H367.71L367.15 438.767C366.31 453.729 367.15 454.718 378.354 453.853L386.336 453.235L386.756 461.396L387.177 469.681L396.139 470.052C406.503 470.547 416.586 467.455 427.229 460.778C435.211 455.831 439.973 450.39 445.014 440.869L448.796 433.82V257.607V81.3937L444.874 73.9742C439.133 63.0923 408.743 36.8767 396.98 32.5487L388.577 29.4572L220.805 29.0862C86.5032 28.8389 53.0328 29.0862 52.4726 30.3228ZM394.039 37.3713C398.66 38.9789 404.402 42.0704 407.063 44.1726L411.824 48.006L245.453 47.635L78.9409 47.264L75.8599 50.1082C72.919 52.9523 72.919 53.5706 71.9387 120.099L70.9584 187.122H65.7768C62.9759 187.122 60.035 186.503 59.0547 185.638C56.814 183.659 56.674 39.8445 58.7746 36.1348C60.3151 33.7853 62.6958 33.7853 223.046 34.0326L385.776 34.4035L394.039 37.3713ZM374.293 124.303L373.872 196.396L356.507 211.482C346.984 219.891 339.562 226.692 340.122 226.816C340.542 226.94 346.144 226.816 352.306 226.692C363.509 226.445 363.789 226.569 364.63 229.66C365.05 231.391 367.29 233.617 369.671 234.73C377.233 238.193 383.535 236.585 387.177 230.278C389.417 226.569 389.557 226.569 400.201 226.692C406.082 226.816 411.404 226.816 411.964 226.816C412.524 226.692 405.102 219.767 395.439 211.359L378.074 196.025V124.18V52.334H390.678C406.503 52.334 416.586 55.4255 425.969 63.216C434.371 70.1408 438.012 75.2108 440.533 83.6196C443.614 93.6359 443.474 422.073 440.393 432.46C435.632 448.659 419.246 461.396 399.92 463.622L393.338 464.487L393.759 446.062L394.179 427.637L406.783 427.266L419.387 426.895L418.966 380.894L418.686 334.893H367.851H317.155V293.839V252.784L308.332 252.413L299.369 252.042L299.509 229.166C299.649 212.719 299.089 204.434 297.689 199.611C295.448 192.563 290.266 184.896 284.385 179.949C279.063 175.498 267.159 171.046 259.737 170.551L253.295 170.304L253.015 148.046C252.735 126.529 252.595 125.787 248.814 118.862C241.251 105.631 228.367 97.4693 212.542 95.9854C198.258 94.7488 182.013 101.55 173.47 112.556C166.188 121.83 165.068 127.147 165.348 150.024L165.628 170.428H138.179H110.731L110.311 185.885L109.89 201.342H94.0656H78.3807L77.9606 126.776L77.6805 52.334H226.127H374.573L374.293 124.303ZM225.426 102.416C234.389 106.496 240.831 112.061 244.752 118.986C248.393 125.663 248.534 126.9 248.954 147.798C249.514 168.326 249.374 169.809 246.853 170.551C233.409 174.632 223.466 181.062 218.984 188.606C217.864 190.584 216.464 192.068 215.903 192.068C215.343 192.068 215.203 187.245 215.343 181.31L215.903 170.428H192.516H169.129L169.409 149.159C169.549 126.158 170.669 120.841 177.251 113.298C181.453 108.475 189.295 103.529 196.998 101.055C204 98.7059 218.984 99.4479 225.426 102.416ZM249.234 213.09V252.661H232.429H215.623V226.445C215.623 197.633 216.043 195.654 225.426 185.638C229.067 181.804 244.472 173.519 248.113 173.519C248.674 173.519 249.234 191.326 249.234 213.09ZM272.761 177.105C279.763 180.197 287.746 187.369 291.667 193.676C294.468 198.498 294.748 200.724 295.168 225.703L295.588 252.661H274.161H252.735V212.966V173.272L260.157 174.014C264.358 174.509 269.96 175.869 272.761 177.105ZM209.181 177.229C209.882 177.847 210.302 194.665 210.162 214.697C209.882 249.816 210.022 251.053 212.822 254.268L215.763 257.607L260.857 257.483C285.785 257.483 307.072 257.854 308.332 258.225C310.573 258.967 310.713 262.801 311.133 296.807L311.553 334.522L315.474 337.49L319.395 340.458H366.31H413.085L412.804 380.894L412.384 421.454H406.082H399.78L399.08 394.002C398.38 368.652 398.1 366.303 395.579 364.077C392.918 361.604 390.678 361.604 347.264 361.356C322.196 361.233 300.63 360.985 299.369 360.614C296.989 360.12 296.848 357.276 296.848 323.146V286.172L293.487 282.71L290.126 279.247L242.652 278.629L195.317 278.011L194.617 240.171C193.917 205.176 193.777 201.961 191.256 199.611C188.735 197.138 187.054 197.014 152.744 196.767L116.893 196.396V186.503V176.611L140.7 175.992C170.529 175.25 207.501 175.869 209.181 177.229ZM390.257 210.864C397.4 217.171 403.282 222.735 403.282 223.23C403.282 223.848 390.958 224.219 375.973 224.219C360.988 224.219 348.665 223.972 348.665 223.725C348.665 222.735 374.573 199.858 375.973 199.735C376.673 199.611 383.115 204.681 390.257 210.864ZM189.295 242.768L189.715 283.699L240.551 283.575H291.247V325.001V366.55L342.083 366.426L392.778 366.303V396.97V427.637L389.697 428.008L386.476 428.379V400.185V371.991H337.181C310.013 372.115 286.905 371.867 286.065 371.62C284.665 371.249 284.245 361.851 284.245 330.442V289.758H233.129H181.873L182.013 248.951L182.293 208.02L146.022 207.773L109.89 207.525L109.47 204.681L109.05 201.961H148.963H189.015L189.295 242.768ZM175.711 214.574C176.131 215.439 176.551 232.381 176.691 252.29L177.111 288.274L180.472 291.489L183.833 294.704L230.888 294.952L277.943 295.323L278.643 333.286C279.343 370.754 279.343 371.373 282.564 374.093C285.645 376.937 286.065 376.937 332.98 377.556L380.174 378.174L380.875 403.153C381.575 426.895 381.715 428.256 384.656 430.976C387.317 433.449 387.877 435.428 387.877 441.611V449.277H381.575C373.732 449.277 372.472 447.423 372.472 435.799C372.472 428.008 372.192 427.019 368.831 424.669C365.19 422.073 363.789 422.073 291.947 422.073C209.461 422.073 217.024 423.062 217.024 411.685C217.024 403.277 213.803 392.518 208.061 381.884C192.796 353.566 163.387 335.759 125.995 332.42C120.954 331.926 116.473 330.936 115.912 330.194C114.652 328.463 114.372 217.913 115.632 215.068C116.332 213.337 120.394 213.09 145.742 213.09C168.009 213.09 175.291 213.461 175.711 214.574ZM385.076 227.558C385.076 227.929 384.096 229.413 382.695 230.649C378.914 234.359 369.671 233.123 367.71 228.547C367.15 227.063 368.411 226.692 375.973 226.692C381.015 226.692 385.076 227.063 385.076 227.558Z" fill="black"/>
<path d="M360.848 249.198C355.387 254.516 357.627 255.876 363.369 250.682C366.03 248.333 368.271 246.107 368.271 245.86C368.271 244.128 364.349 245.983 360.848 249.198Z" fill="black"/>
<path d="M374.433 246.849C373.172 249.693 374.433 261.935 375.973 261.564C376.673 261.44 377.374 257.978 377.374 253.774C377.374 246.478 376.113 243.263 374.433 246.849Z" fill="black"/>
<path d="M385.076 246.231C385.076 247.962 394.319 255.258 395.299 254.268C395.859 253.774 394.319 251.548 391.798 249.322C387.457 245.365 385.076 244.252 385.076 246.231Z" fill="black"/>
<path d="M113 332.5V212.5H174.5C181.601 212.101 178.997 248.461 179 287.5L181 292H185.5H282V372L285 374.5H383.5V402.5L386.5 428.5L391 450H373L369 424.5L215 422L213 402.5L209 389.5L193 365L174.5 350L147.5 338.5L113 332.5Z" fill="black" stroke="black"/>
<path d="M114 198V174H211.5L213.5 252L216.5 256H313V332L316.5 336.5L415 339V422H397V368L395.5 364H391.5H296.5V359V285.5L290.5 279H195L191.5 201L114 198Z" fill="black" stroke="black"/>
<path d="M57 187V34L64.5 32.5H227.5H389L406.5 40L415 45.5V49.5H82H76.5V53.5L74 187H57Z" fill="black" stroke="black"/>
</svg>
