<svg width="105" height="56" viewBox="0 0 105 56" fill="none" xmlns="http://www.w3.org/2000/svg">
<rect width="105" height="56" rx="8" fill="white" fill-opacity="0.11"/>
<rect x="0.5" y="0.5" width="104" height="55" rx="7.5" stroke="#E8ECF4" stroke-opacity="0.11"/>
<g clip-path="url(#clip0_5_657)">
<path d="M44.6683 40.5133C44.1557 40.1722 43.7014 39.7508 43.3228 39.2653C42.9064 38.7641 42.5205 38.2383 42.1674 37.6906C41.3387 36.4766 40.6889 35.1498 40.2377 33.7508C39.6958 32.1258 39.4333 30.5683 39.4333 29.0448C39.4333 27.3435 39.8014 25.8582 40.5213 24.6102C41.0549 23.6348 41.8395 22.8196 42.7938 22.2491C43.7187 21.6746 44.7814 21.3602 45.87 21.3391C46.251 21.3391 46.6613 21.3943 47.0968 21.5C47.4097 21.5885 47.7907 21.7283 48.2563 21.9021C48.8486 22.1305 49.1744 22.2702 49.2849 22.3043C49.6318 22.4311 49.9235 22.4863 50.1527 22.4863C50.3265 22.4863 50.5719 22.4311 50.8506 22.3466C51.0074 22.2913 51.3032 22.1938 51.7265 22.0126C52.1457 21.8599 52.4756 21.7291 52.738 21.6316C53.1402 21.513 53.5294 21.4033 53.8763 21.348C54.2876 21.2832 54.705 21.266 55.1203 21.2968C55.8398 21.3439 56.5486 21.4963 57.2238 21.7494C58.328 22.1938 59.221 22.8877 59.8856 23.8741C59.6047 24.0472 59.341 24.2469 59.0983 24.4705C58.5698 24.9389 58.1197 25.4889 57.765 26.0995C57.3013 26.934 57.0609 27.8741 57.067 28.8287C57.0841 30.0011 57.3847 31.0338 57.977 31.9268C58.4125 32.5886 58.9784 33.1545 59.6402 33.59C59.979 33.8183 60.2707 33.9751 60.5502 34.0807C60.4194 34.487 60.2797 34.8802 60.1147 35.2702C59.7406 36.1448 59.2873 36.9833 58.7603 37.7751C58.2907 38.4568 57.9226 38.9646 57.6431 39.3026C57.2076 39.8186 56.7883 40.2126 56.365 40.4873C55.8995 40.796 55.3494 40.961 54.7904 40.961C54.4118 40.9755 54.0333 40.9297 53.6692 40.8253C53.3563 40.7196 53.0468 40.6051 52.7421 40.4743C52.4253 40.3288 52.0987 40.2058 51.7647 40.1062C50.9389 39.8941 50.0731 39.8927 49.2467 40.1021C48.9079 40.1996 48.5821 40.3134 48.2603 40.4531C47.8078 40.6433 47.5072 40.7708 47.3333 40.8253C46.9863 40.9268 46.6264 40.9902 46.2624 41.0113C45.6993 41.0113 45.1745 40.8505 44.6545 40.5246L44.6683 40.5133ZM52.0945 20.5136C51.3584 20.8816 50.6556 21.0385 49.9577 20.9873C49.848 20.2845 49.9577 19.5654 50.2493 18.7781C50.4977 18.1111 50.8646 17.4945 51.3324 16.9581C51.8264 16.3934 52.4259 15.9306 53.0972 15.5955C53.8122 15.2275 54.4938 15.0284 55.1455 14.9991C55.23 15.7353 55.1455 16.4592 54.8749 17.2416C54.6245 17.9333 54.2583 18.5773 53.7918 19.1461C53.3158 19.7116 52.7315 20.1762 52.0734 20.5128L52.0945 20.5136Z" fill="white"/>
</g>
<defs>
<clipPath id="clip0_5_657">
<rect width="26" height="26" fill="white" transform="translate(37 15)"/>
</clipPath>
</defs>
</svg>
