<svg width="105" height="56" viewBox="0 0 105 56" fill="none" xmlns="http://www.w3.org/2000/svg">
<rect width="105" height="56" rx="8" fill="white" fill-opacity="0.11"/>
<rect x="0.5" y="0.5" width="104" height="55" rx="7.5" stroke="#E8ECF4" stroke-opacity="0.11"/>
<path d="M43.4202 30.4656L42.5975 33.537L39.5903 33.6006C38.6916 31.9338 38.1819 30.0266 38.1819 28C38.1819 26.0403 38.6585 24.1922 39.5033 22.5649H39.504L42.1811 23.0558L43.3539 25.7169C43.1085 26.4325 42.9747 27.2007 42.9747 28C42.9748 28.8675 43.1319 29.6987 43.4202 30.4656Z" fill="#FBBB00"/>
<path d="M61.6119 25.7921C61.7476 26.507 61.8184 27.2453 61.8184 27.9999C61.8184 28.846 61.7294 29.6713 61.5599 30.4675C60.9846 33.1765 59.4814 35.5421 57.3989 37.2161L57.3983 37.2155L54.0262 37.0434L53.549 34.0642C54.9308 33.2538 56.0107 31.9856 56.5795 30.4675H50.26V25.7921H56.6717H61.6119Z" fill="#518EF8"/>
<path d="M57.3981 37.2156L57.3988 37.2162C55.3735 38.8441 52.8007 39.8181 50.0001 39.8181C45.4994 39.8181 41.5865 37.3026 39.5903 33.6006L43.4202 30.4656C44.4182 33.1292 46.9877 35.0253 50.0001 35.0253C51.2949 35.0253 52.5079 34.6753 53.5488 34.0643L57.3981 37.2156Z" fill="#28B446"/>
<path d="M57.5437 18.9025L53.7151 22.0369C52.6379 21.3636 51.3644 20.9746 50.0002 20.9746C46.9197 20.9746 44.3021 22.9577 43.3541 25.7168L39.5041 22.5649H39.5034C41.4703 18.7727 45.4326 16.1818 50.0002 16.1818C52.8677 16.1818 55.4969 17.2032 57.5437 18.9025Z" fill="#F14336"/>
</svg>
