<svg width="41" height="50" viewBox="0 0 41 50" fill="none" xmlns="http://www.w3.org/2000/svg">
<path d="M18.781 0V3.36675C11.9932 3.76253 6.47939 8.93902 5.54999 15.5702C5.02785 15.236 4.41172 15.0376 3.74339 15.0376C1.90755 15.0376 0.401699 16.5414 0.401699 18.3793C0.401699 19.9248 1.46791 21.2406 2.89961 21.6165L3.2296 24.7703C3.2035 31.4328 3.5032 38.9411 2.98106 45.896C2.68867 45.1337 2.6636 44.6324 2.50905 43.7135L1.23294 43.9432C1.46268 45.3739 1.75299 46.7627 2.60304 48.0054C5.10095 47.0343 5.75884 41.6458 6.42718 38.1997L4.24464 36.9883L6.78223 36.2573C7.02242 34.764 7.17906 33.8241 7.2626 32.8739L5.22626 31.2866L7.3357 31.3074C7.3357 30.9002 7.3357 30.4616 7.32526 29.9603C7.28349 28.6028 6.09301 25.5744 4.89209 24.9269L4.54748 21.6165C5.02785 21.5017 5.456 21.2824 5.83194 20.9795C7.31481 26.9006 12.5049 31.3596 18.781 31.7251V32.7277C17.8098 33.0723 17.1101 34.0017 17.1101 35.0877C17.1101 36.2991 17.9769 37.312 19.1256 37.5418C17.8202 37.9177 16.494 39.5468 16.6402 40.2778C17.507 44.622 18.1962 49.5301 19.8566 50C21.9034 47.9428 22.1122 43.8074 22.5195 39.8601C22.5717 39.3588 21.3081 37.8968 20.1177 37.5418C21.2559 37.3016 22.1227 36.2886 22.1227 35.0877C22.1227 34.0017 21.423 33.0723 20.4518 32.7277V31.7251C26.7279 31.3596 31.918 26.9006 33.4009 20.9795C33.8081 21.3033 34.2885 21.5434 34.8106 21.6479L35.1553 26.0443C33.9439 26.6082 32.8892 28.1955 32.8474 29.3964C32.7847 31.7147 32.9414 34.2419 33.4009 36.7272L35.8236 37.7924L33.6097 37.7611C33.6515 37.9595 33.6933 38.1475 33.7455 38.3459L34.5391 39.2022L34.0065 39.3484C34.748 41.9904 35.8654 44.4653 37.4422 46.4286C38.0166 45.3321 38.4656 44.1207 38.8102 42.8363L37.5362 42.6378C37.4735 43.4524 37.4004 44.2669 37.3169 45.071C36.7948 38.962 36.8365 31.7878 36.8157 25.8981L36.471 21.5748C37.839 21.1466 38.8311 19.8726 38.8311 18.3793C38.8311 16.5414 37.3273 15.0376 35.4894 15.0376C34.8211 15.0376 34.205 15.236 33.6828 15.5702C32.7534 8.93902 27.2396 3.76253 20.4518 3.36675V0H18.781ZM19.6164 5.01253C26.5504 5.01253 32.1477 10.6099 32.1477 17.5439C32.1477 24.4779 26.5504 30.0752 19.6164 30.0752C12.6824 30.0752 7.08507 24.4779 7.08507 17.5439C7.08507 10.6099 12.6824 5.01253 19.6164 5.01253ZM19.1151 6.57999C18.405 6.61236 17.7158 6.71053 17.0475 6.8703C16.6611 7.68901 16.4 8.54845 16.2538 9.41938C15.5228 8.90769 14.7292 8.48893 13.8833 8.17982C13.2881 8.54532 12.7346 8.97034 12.2125 9.42982C13.7058 9.75355 15.0425 10.4637 16.1181 11.4557C16.1598 12.5627 16.3896 13.6696 16.7969 14.7243C15.7421 14.317 14.6352 14.0873 13.5283 14.0455C12.5362 12.9699 11.8261 11.6333 11.5024 10.1504C11.0324 10.6621 10.6147 11.2155 10.2492 11.8108C10.5625 12.6566 10.9907 13.4503 11.5024 14.1813C10.6252 14.3275 9.75842 14.5886 8.94389 14.9749C8.78725 15.6433 8.68282 16.3325 8.65149 17.0426C9.92551 16.2176 11.3771 15.7686 12.839 15.7164C13.6536 16.4683 14.5934 17.0948 15.6273 17.5439C14.5934 17.9929 13.6536 18.6195 12.839 19.3818C11.3771 19.3191 9.92551 18.8805 8.65149 18.0556C8.68282 18.7657 8.78725 19.4444 8.94389 20.1128C9.75842 20.4992 10.6252 20.7602 11.5024 20.9064C10.9907 21.6374 10.5625 22.4311 10.2492 23.2769C10.6147 23.8722 11.0324 24.4256 11.5024 24.9373C11.8261 23.4545 12.5362 22.1178 13.5283 21.0422C14.6352 21.0004 15.7421 20.7707 16.7969 20.3634C16.3896 21.4181 16.1598 22.5146 16.1181 23.632C15.0425 24.6241 13.7058 25.3342 12.2125 25.6475C12.7242 26.1174 13.2881 26.5455 13.8833 26.911C14.7396 26.5977 15.5333 26.18 16.2538 25.6683C16.4 26.5455 16.6611 27.4018 17.0475 28.2164C17.7158 28.373 18.3946 28.4774 19.1047 28.5088C18.2797 27.2348 17.8411 25.7937 17.7785 24.3212C18.5408 23.5067 19.1674 22.5668 19.6164 21.533C20.0654 22.5668 20.692 23.5067 21.4439 24.3212C21.3917 25.7832 20.9426 27.2348 20.1177 28.5088C20.8278 28.4774 21.517 28.373 22.1853 28.2164C22.5717 27.4018 22.8328 26.5455 22.979 25.6683C23.71 26.18 24.5036 26.5977 25.3495 26.911C25.9447 26.5455 26.5086 26.1174 27.0203 25.6475C25.527 25.3342 24.1903 24.6241 23.1147 23.632C23.073 22.5251 22.8537 21.4181 22.436 20.3634C23.4907 20.7811 24.5976 21.0004 25.7045 21.0422C26.6966 22.1178 27.4067 23.4545 27.7304 24.9373C28.2004 24.4256 28.6181 23.8722 28.9836 23.2769C28.6703 22.4311 28.2526 21.6374 27.7409 20.9064C28.6181 20.7602 29.4744 20.4992 30.2889 20.1128C30.4456 19.4444 30.55 18.7552 30.5813 18.0451C29.3073 18.8701 27.8557 19.3191 26.3938 19.3713C25.5792 18.6195 24.6394 17.9929 23.6055 17.5439C24.6394 17.0948 25.5792 16.4683 26.3938 15.7059C27.8557 15.7686 29.3073 16.2072 30.5813 17.0322C30.55 16.3221 30.4456 15.6433 30.2889 14.9749C29.4744 14.5886 28.6076 14.3275 27.7304 14.1813C28.2421 13.4503 28.6703 12.6566 28.9836 11.8108C28.6181 11.2155 28.1899 10.6516 27.72 10.1399C27.4067 11.6333 26.6966 12.9699 25.7045 14.0455C24.5872 14.0873 23.4907 14.317 22.436 14.7243C22.8432 13.6696 23.073 12.5627 23.1147 11.4557C24.1903 10.4637 25.527 9.74311 27.0203 9.42982C26.4982 8.9599 25.9447 8.54532 25.3495 8.17982C24.5036 8.48893 23.71 8.90769 22.979 9.41938C22.8328 8.54845 22.5717 7.68901 22.1853 6.8703C21.517 6.71053 20.8278 6.61236 20.1177 6.57999C20.9531 7.85401 21.3917 9.30451 21.4543 10.7665C20.692 11.581 20.0654 12.5209 19.6164 13.5547C19.1674 12.5209 18.5408 11.581 17.7785 10.7665C17.8411 9.30451 18.2797 7.85401 19.1151 6.57999ZM19.6164 15.0376C20.9948 15.0376 22.1227 16.1654 22.1227 17.5439C22.1227 18.9223 20.9948 20.0501 19.6164 20.0501C18.238 20.0501 17.1101 18.9223 17.1101 17.5439C17.1101 16.1654 18.238 15.0376 19.6164 15.0376ZM3.74339 16.7084C4.67279 16.7084 5.41423 17.4499 5.41423 18.3793C5.41423 19.3087 4.67279 20.0501 3.74339 20.0501C2.81085 20.0501 2.07254 19.3087 2.07254 18.3793C2.07254 17.4499 2.81085 16.7084 3.74339 16.7084ZM19.6164 16.7084C19.1465 16.7084 18.781 17.0739 18.781 17.5439C18.781 18.0138 19.1465 18.3793 19.6164 18.3793C20.0863 18.3793 20.4518 18.0138 20.4518 17.5439C20.4518 17.0739 20.0863 16.7084 19.6164 16.7084ZM35.4894 16.7084C36.4188 16.7084 37.1603 17.4499 37.1603 18.3793C37.1603 19.3087 36.4188 20.0501 35.4894 20.0501C34.56 20.0501 33.8186 19.3087 33.8186 18.3793C33.8186 17.4499 34.56 16.7084 35.4894 16.7084ZM2.04957 25.2402C0.992759 25.8563 0.105124 26.8379 0.0842382 27.6316C-0.124617 32.1011 0.0111393 37.1136 0.99276 42.8676L2.49861 43.4524C2.10178 37.3538 2.11222 31.3074 2.04957 25.2402ZM37.9957 26.3158C37.933 31.6729 37.9435 37.0196 37.5466 42.4081L39.0504 41.886C39.8441 38.5756 40.0529 34.8475 40.0216 31.109L38.4969 31.0777L40.0007 30.2005C40.0007 29.6053 39.9903 29.01 39.9589 28.4252C39.938 27.7256 39.0504 26.8588 37.9957 26.3158ZM19.6164 34.2523C20.0863 34.2523 20.4518 34.6178 20.4518 35.0877C20.4518 35.5576 20.0863 35.9231 19.6164 35.9231C19.1465 35.9231 18.781 35.5576 18.781 35.0877C18.781 34.6178 19.1465 34.2523 19.6164 34.2523ZM19.1778 37.5522C19.324 37.5835 19.4702 37.594 19.6164 37.594C19.7522 37.594 19.8775 37.5835 20.0028 37.5627L19.7626 47.0238L19.1778 37.5522Z" fill="white"/>
</svg>
