<svg width="75" height="75" viewBox="0 0 75 75" fill="none" xmlns="http://www.w3.org/2000/svg">
<circle cx="37.5" cy="37.5" r="37" fill="url(#paint0_linear_46_1024)" stroke="black"/>
<path d="M61.008 39.367C60.8794 37.7024 59.6872 36.0251 57.6958 34.4631L61.008 39.367ZM61.008 39.367C61.074 40.22 60.8566 41.0179 60.3892 41.751C59.4426 43.2358 57.4705 44.4536 54.7512 45.3208C58.8127 44.0254 61.2076 41.9482 61.008 39.367ZM61.008 39.367C60.9808 39.0158 60.9063 38.6643 60.787 38.3131C60.5728 37.6828 60.2139 37.0546 59.725 36.4353C58.8522 35.33 57.5649 34.2532 55.9443 33.2445M61.008 39.367C61.2414 42.3869 57.9237 44.7167 52.5406 45.9124L61.008 39.367ZM57.6958 34.4631C53.3149 31.026 45.0661 28.1453 35.7642 27.1798C22.2342 25.7755 11.5998 28.9549 12.0116 34.2814M57.6958 34.4631C56.3267 33.3888 54.5796 32.369 52.5406 31.4451C53.7919 32.012 54.9328 32.6149 55.9443 33.2445M12.0116 34.2814C12.0387 34.6326 12.1132 34.9841 12.2325 35.3352C12.4467 35.9656 12.8055 36.5937 13.2946 37.2133C14.1673 38.3184 15.4548 39.3952 17.0753 40.4039M12.0116 34.2814C11.812 31.7001 14.207 29.6232 18.2684 28.3276C15.5492 29.1949 13.5769 30.4125 12.6303 31.8976C12.163 32.6304 11.9456 33.4284 12.0116 34.2814ZM12.0116 34.2814C12.1402 35.9459 13.3324 37.6232 15.3237 39.1855L12.0116 34.2814ZM17.0753 40.4039C18.0868 41.0334 19.2279 41.6364 20.479 42.2036C18.4401 41.2794 16.6929 40.2596 15.3237 39.1855M17.0753 40.4039C19.4045 41.8535 22.4217 43.163 25.8845 44.2146L17.0753 40.4039ZM15.3237 39.1855C18.1598 41.4104 22.617 43.4023 27.9314 44.7923L15.3237 39.1855ZM55.9443 33.2445C53.6152 31.7949 50.598 30.4854 47.135 29.4338L55.9443 33.2445Z" fill="url(#paint1_linear_46_1024)"/>
<path d="M61.008 39.367C60.8794 37.7024 59.6872 36.0251 57.6958 34.4631M61.008 39.367C61.074 40.22 60.8566 41.0179 60.3892 41.751C59.4426 43.2358 57.4705 44.4536 54.7512 45.3208C58.8127 44.0254 61.2076 41.9482 61.008 39.367ZM61.008 39.367C60.9808 39.0158 60.9063 38.6643 60.787 38.3131C60.5728 37.6828 60.2139 37.0546 59.725 36.4353C58.8522 35.33 57.5649 34.2532 55.9443 33.2445M61.008 39.367C61.2414 42.3869 57.9237 44.7167 52.5407 45.9124M57.6958 34.4631C53.3149 31.026 45.0661 28.1453 35.7642 27.1798C22.2342 25.7755 11.5998 28.9549 12.0116 34.2814M57.6958 34.4631C56.3267 33.3888 54.5796 32.369 52.5407 31.4451C53.7919 32.012 54.9328 32.6149 55.9443 33.2445M55.9443 33.2445C53.6152 31.7949 50.598 30.4854 47.135 29.4338M12.0116 34.2814C12.0387 34.6326 12.1132 34.9841 12.2325 35.3352C12.4467 35.9656 12.8055 36.5937 13.2946 37.2133C14.1673 38.3184 15.4548 39.3952 17.0753 40.4039M12.0116 34.2814C11.812 31.7001 14.207 29.6232 18.2684 28.3276C15.5492 29.1949 13.5769 30.4125 12.6303 31.8976C12.163 32.6304 11.9456 33.4284 12.0116 34.2814ZM12.0116 34.2814C12.1402 35.9459 13.3324 37.6232 15.3237 39.1855M17.0753 40.4039C18.0868 41.0334 19.2279 41.6364 20.479 42.2036C18.4401 41.2794 16.6929 40.2596 15.3237 39.1855M17.0753 40.4039C19.4045 41.8535 22.4217 43.163 25.8845 44.2146M15.3237 39.1855C18.1598 41.4104 22.617 43.4023 27.9314 44.7923" stroke="black" stroke-width="3" stroke-linecap="round"/>
<path d="M44.5351 15.3559C45.1704 14.9028 45.787 14.5104 46.3807 14.1828C48.5392 12.9915 50.3912 12.6567 51.7103 13.3774C52.3863 13.7468 52.8814 14.371 53.2042 15.2114C53.5059 15.9965 53.6574 16.9701 53.6659 18.1011M44.5351 15.3559C40.088 18.5271 34.7358 24.67 30.0927 32.3659C22.3896 45.1341 19.5502 57.3516 23.735 59.6922M44.5351 15.3559C43.5819 16.0355 42.5873 16.8518 41.5669 17.7905L44.5351 15.3559ZM23.735 59.6922C23.7433 59.6967 23.7516 59.7014 23.7599 59.7058C24.0381 59.8578 24.3401 59.9631 24.6636 60.0229C25.2445 60.1307 25.8951 60.093 26.603 59.9204C27.8663 59.613 29.3122 58.8769 30.8707 57.7732C31.2355 57.515 31.6064 57.2364 31.9826 56.9387C32.6096 56.4426 33.2513 55.8926 33.9035 55.2927L36.7829 52.6488M23.735 59.6922C21.7112 58.5603 21.3304 55.1182 22.3479 50.421L23.735 59.6922ZM53.1226 22.6622C53.4912 20.9603 53.6762 19.4232 53.6659 18.1011L53.1226 22.6622ZM53.6659 18.1011C53.6843 20.4724 53.0745 23.5351 51.9042 26.9997L53.6659 18.1011Z" fill="url(#paint2_linear_46_1024)"/>
<path d="M44.5351 15.3559C45.1704 14.9028 45.787 14.5104 46.3807 14.1828C48.5392 12.9915 50.3912 12.6567 51.7103 13.3774C52.3863 13.7468 52.8814 14.371 53.2042 15.2114C53.5059 15.9965 53.6574 16.9701 53.6659 18.1011M44.5351 15.3559C40.088 18.5271 34.7358 24.67 30.0927 32.3659C22.3896 45.1341 19.5502 57.3516 23.735 59.6922M44.5351 15.3559C43.5819 16.0355 42.5873 16.8518 41.5669 17.7905M53.6659 18.1011C53.6762 19.4232 53.4912 20.9603 53.1226 22.6622M53.6659 18.1011C53.6843 20.4724 53.0745 23.5351 51.9042 26.9997M23.735 59.6922C23.7433 59.6967 23.7516 59.7014 23.7599 59.7058C24.0381 59.8578 24.3401 59.9631 24.6636 60.0229C25.2445 60.1307 25.8951 60.093 26.603 59.9204C27.8663 59.613 29.3122 58.8768 30.8707 57.7732C31.2355 57.515 31.6064 57.2364 31.9826 56.9387C32.6096 56.4426 33.2513 55.8926 33.9035 55.2927L36.7829 52.6488M23.735 59.6922C21.7112 58.5603 21.3304 55.1182 22.3479 50.421" stroke="black" stroke-width="3" stroke-linecap="round"/>
<path d="M35.9329 41.4747C35.8991 38.9532 35.8824 37.6925 36.5859 37.2336C37.2893 36.7746 38.2471 37.4213 40.1628 38.715L40.6584 39.0499C41.2028 39.4174 41.4748 39.601 41.7746 39.6439C42.0746 39.6869 42.368 39.5838 42.9552 39.3778L43.4898 39.1903C45.5557 38.4652 46.5888 38.1027 47.2096 38.7508C47.8307 39.3988 47.6283 40.6283 47.2236 43.0871L47.119 43.7233C47.004 44.4221 46.9464 44.7713 47.0145 45.1128C47.0829 45.454 47.269 45.7487 47.6415 46.3378L47.9805 46.8743C49.291 48.9476 49.9462 49.9843 49.6265 50.8437C49.3069 51.7034 48.2239 51.8164 46.0582 52.0424L45.4979 52.1008C44.8824 52.1651 44.5748 52.1972 44.317 52.3653C44.0594 52.5334 43.881 52.8184 43.5241 53.3887L43.1991 53.9077C41.943 55.914 41.3148 56.9174 40.4964 56.8003C39.6778 56.6834 39.2109 55.524 38.277 53.2048L38.0356 52.6049C37.7702 51.9457 37.6376 51.6161 37.4101 51.3788C37.1824 51.1414 36.8861 51.0229 36.293 50.7861L35.7533 50.5706C33.6663 49.7372 32.6229 49.3204 32.4369 48.3887C32.2506 47.457 33.0449 46.6275 34.6334 44.968L35.0445 44.5387C35.4959 44.0673 35.7217 43.8313 35.8388 43.5167C35.9557 43.2018 35.9511 42.8434 35.9415 42.1269L35.9329 41.4747Z" fill="url(#paint3_linear_46_1024)" stroke="black" stroke-width="3"/>
<defs>
<linearGradient id="paint0_linear_46_1024" x1="76.3081" y1="74.1148" x2="7.72243" y2="-4.6259" gradientUnits="userSpaceOnUse">
<stop stop-color="#63CDEA"/>
<stop offset="0.245" stop-color="#B7FFF0"/>
<stop offset="0.475" stop-color="#86EEA8"/>
<stop offset="0.71" stop-color="#23FFD1"/>
<stop offset="1" stop-color="#13FFCE"/>
</linearGradient>
<linearGradient id="paint1_linear_46_1024" x1="61.8746" y1="45.6874" x2="51.1775" y2="14.11" gradientUnits="userSpaceOnUse">
<stop stop-color="#63CDEA"/>
<stop offset="0.245" stop-color="#B7FFF0"/>
<stop offset="0.475" stop-color="#86EEA8"/>
<stop offset="0.71" stop-color="#23FFD1"/>
<stop offset="1" stop-color="#13FFCE"/>
</linearGradient>
<linearGradient id="paint2_linear_46_1024" x1="54.2221" y1="59.5276" x2="12.1033" y2="26.8044" gradientUnits="userSpaceOnUse">
<stop stop-color="#63CDEA"/>
<stop offset="0.245" stop-color="#B7FFF0"/>
<stop offset="0.475" stop-color="#86EEA8"/>
<stop offset="0.71" stop-color="#23FFD1"/>
<stop offset="1" stop-color="#13FFCE"/>
</linearGradient>
<linearGradient id="paint3_linear_46_1024" x1="50.0083" y1="56.5767" x2="31.8001" y2="38.2446" gradientUnits="userSpaceOnUse">
<stop stop-color="#63CDEA"/>
<stop offset="0.245" stop-color="#B7FFF0"/>
<stop offset="0.475" stop-color="#86EEA8"/>
<stop offset="0.71" stop-color="#23FFD1"/>
<stop offset="1" stop-color="#13FFCE"/>
</linearGradient>
</defs>
</svg>
